<svg width="42" height="50" viewBox="0 0 42 50" fill="none" xmlns="http://www.w3.org/2000/svg">
<path d="M31.5284 17.2725H41.7581L29.9571 5.45432V15.6989C29.9571 16.566 30.6626 17.2725 31.5284 17.2725Z" fill="#42BBFF"/>
<path d="M31.3304 18.0135C29.7664 18.0135 28.509 16.7353 28.509 15.1453V4.54546H7.04148C6.15211 4.54546 5.44675 5.26251 5.44675 6.19779V17.4835H15.3831C15.5672 17.4835 15.6898 17.3276 15.6898 17.1717V15.27C15.6898 14.9894 15.9965 14.8335 16.1805 15.0206L20.9647 18.6993C21.118 18.824 21.118 19.0735 20.9647 19.1982L16.1805 22.9081C15.9965 23.064 15.6898 22.9081 15.6898 22.6587V20.7258C15.6898 20.5699 15.5672 20.414 15.3831 20.414H5.44675V25.2775H21.118C21.2714 25.2775 21.4247 25.1528 21.4247 24.9657V23.064C21.4247 22.8146 21.7007 22.6587 21.9154 22.8146L26.6689 26.4933C26.8529 26.6492 26.8529 26.8986 26.6689 27.0233L21.9154 30.7021C21.7007 30.858 21.4247 30.7021 21.4247 30.4527V28.551C21.4247 28.3639 21.2714 28.2392 21.118 28.2392H5.44675V33.1026H26.8223C27.0063 33.1026 27.1289 32.9468 27.1289 32.7909V30.858C27.1289 30.6086 27.4356 30.4527 27.6503 30.6086L32.4038 34.3185C32.5571 34.4432 32.5571 34.6926 32.4038 34.8173L27.6503 38.4961C27.4356 38.6831 27.1289 38.5273 27.1289 38.2467V36.3449C27.1289 36.1891 27.0063 36.0332 26.8223 36.0332H5.44675V40.8966H32.5571C32.7105 40.8966 32.8638 40.7719 32.8638 40.5849V38.6831C32.8638 38.4026 33.1705 38.2779 33.3545 38.4337L38.108 42.1125C38.292 42.2372 38.292 42.4866 38.108 42.6113L33.3545 46.3212C33.1705 46.4771 32.8638 46.3213 32.8638 46.0718V44.1701C32.8638 43.983 32.7105 43.8272 32.5571 43.8272H5.44675V48.3477C5.44675 49.283 6.15211 50 7.04148 50H40.1628C41.0521 50 41.7575 49.283 41.7575 48.3477V18.0135H31.3304Z" fill="url(#paint0_linear_589_7588)"/>
<path d="M3.4379 2.16302H29.0486V0H2.99633C1.35623 0 0 1.31661 0 2.97806V45.4545H2.17629V3.41694C2.17629 2.72728 2.74401 2.16302 3.4379 2.16302Z" fill="#2E3757"/>
<defs>
<linearGradient id="paint0_linear_589_7588" x1="5.44675" y1="23.9057" x2="41.7575" y2="23.9057" gradientUnits="userSpaceOnUse">
<stop stop-color="#43B7FE"/>
<stop offset="1" stop-color="#4F48E6"/>
</linearGradient>
</defs>
</svg>
